<?xml version="1.0" encoding="UTF-8" standalone="no"?>
<svg
   xmlns:dc="http://purl.org/dc/elements/1.1/"
   xmlns:cc="http://creativecommons.org/ns#"
   xmlns:rdf="http://www.w3.org/1999/02/22-rdf-syntax-ns#"
   xmlns:svg="http://www.w3.org/2000/svg"
   xmlns="http://www.w3.org/2000/svg"
   version="1.1"
   id="svg224"
   xml:space="preserve"
   width="200"
   height="200"
   viewBox="0 0 200 200"><metadata
     id="metadata230"><rdf:RDF><cc:Work
         rdf:about=""><dc:format>image/svg+xml</dc:format><dc:type
           rdf:resource="http://purl.org/dc/dcmitype/StillImage" /><dc:title></dc:title></cc:Work></rdf:RDF></metadata><defs
     id="defs228"><clipPath
       clipPathUnits="userSpaceOnUse"
       id="clipPath240"><path
         d="M 0,150 H 150 V 0 H 0 Z"
         id="path238" /></clipPath></defs><g
     id="g232"
     transform="matrix(1.3333333,0,0,-1.3333333,0,200)"><g
       id="g234"><g
         id="g236"
         clip-path="url(#clipPath240)"><g
           id="g242"
           transform="translate(74.9669,137.7425)"><path
             d="m 0,0 c -1.013,0 -2.164,-0.55 -2.932,-1.401 -0.604,-0.67 -0.896,-1.445 -0.819,-2.183 0.005,-0.049 0.049,-0.088 0.1,-0.088 1.411,0.078 2.814,0.117 4.174,0.117 0.985,0 2.026,-0.027 3.183,-0.082 l 0.155,0.109 -0.05,-0.003 C 3.69,-1.65 2.189,-0.136 0.318,-0.008 0.234,-0.003 0.15,0 0.065,0 v 0.051 z m -15.109,-108.489 25.325,0.157 c 3.911,-0.079 8.427,-0.119 13.424,-0.119 16.135,0 32.071,0.408 32.742,0.425 0.977,0.471 1.517,1.164 1.654,2.072 0.619,4.1 -7.054,11.423 -7.132,11.496 -13.889,12.325 -16.017,32.524 -16.303,36.448 -0.043,0.593 -0.053,0.915 -0.053,0.915 -0.423,7.223 -0.949,13.726 -1.562,19.33 -1.075,9.828 -8.597,17.912 -18.292,19.659 -1.746,0.314 -3.609,0.586 -5.538,0.808 -2.592,0.487 -5.495,0.734 -8.633,0.734 -5.342,0 -9.565,-0.725 -9.607,-0.732 -1.939,-0.225 -3.803,-0.497 -5.544,-0.81 -9.695,-1.747 -17.217,-9.831 -18.292,-19.659 -0.613,-5.606 -1.139,-12.11 -1.561,-19.331 0,0 -0.011,-0.325 -0.054,-0.914 -0.286,-3.924 -2.415,-24.123 -16.304,-36.449 -0.077,-0.072 -7.75,-7.395 -7.131,-11.495 0.137,-0.908 0.677,-1.601 1.606,-2.059 0.21,-0.017 16.591,-0.438 32.77,-0.437 2.835,0 5.673,0.012 8.426,0.042 h 0.039 z m 5.741,-13.087 c 1.565,-3.181 4.737,-5.183 8.276,-5.226 3.576,0.043 6.763,2.075 8.315,5.303 l -0.092,0.194 v -0.05 l -16.409,-0.077 -0.135,-0.167 z m 9.084,-16.167 c -15.591,0.161 -18.846,7.423 -21.245,16.182 -0.011,0.042 -0.049,0.071 -0.092,0.071 l -3.543,-0.016 -0.022,0.085 h -0.821 c -14.781,0 -29.052,0.351 -30.657,0.391 l -2.772,0.073 -2.553,1.214 c -4.812,2.324 -8.031,6.618 -8.833,11.78 -1.399,9.002 5.231,17.45 11.039,22.95 l 0.31,0.284 c 10.264,9.109 11.815,25.72 11.958,27.584 l 0.047,0.808 c 0.435,7.434 0.979,14.158 1.616,19.987 1.698,15.517 13.59,28.284 28.918,31.046 0.467,0.084 0.954,0.161 1.44,0.237 l 0.213,0.034 c 0.051,0.008 0.085,0.054 0.077,0.105 -0.566,3.831 0.421,7.691 2.78,10.87 2.907,3.917 7.512,6.277 12.318,6.315 h 0.152 c 0.352,0 0.704,-0.011 1.053,-0.035 4.227,-0.287 8.053,-2.241 10.774,-5.505 2.54,-3.05 3.778,-7.097 3.485,-11.397 l -0.027,-0.397 0.413,-0.019 c 0.426,-0.068 0.851,-0.135 1.261,-0.209 15.325,-2.761 27.215,-15.527 28.913,-31.045 0.636,-5.815 1.18,-12.539 1.616,-19.986 l 0.015,-0.337 c 0,0 0.032,-0.47 0.032,-0.47 0.143,-1.863 1.689,-18.473 11.959,-27.586 l 0.31,-0.284 c 5.808,-5.5 12.437,-13.948 11.038,-22.95 -0.802,-5.163 -4.022,-9.456 -8.833,-11.78 l -2.473,-1.194 -2.826,-0.092 c -1.788,-0.045 -17.574,-0.429 -33.119,-0.429 -1.396,0 -4.066,0.008 -4.066,0.008 -0.05,0 -0.084,-0.027 -0.092,-0.071 -0.461,-2.708 -3.584,-16.222 -19.763,-16.222 z"
             style="fill:#42538d;fill-opacity:1;fill-rule:nonzero;stroke:none"
             id="path244" /></g></g></g></g></svg>
