<?xml version="1.0" encoding="UTF-8" standalone="no"?>
<svg
   xmlns:dc="http://purl.org/dc/elements/1.1/"
   xmlns:cc="http://creativecommons.org/ns#"
   xmlns:rdf="http://www.w3.org/1999/02/22-rdf-syntax-ns#"
   xmlns:svg="http://www.w3.org/2000/svg"
   xmlns="http://www.w3.org/2000/svg"
   version="1.1"
   id="svg156"
   xml:space="preserve"
   width="149.996"
   height="93.333336"
   viewBox="0 0 149.996 93.333336"><metadata
     id="metadata162"><rdf:RDF><cc:Work
         rdf:about=""><dc:format>image/svg+xml</dc:format><dc:type
           rdf:resource="http://purl.org/dc/dcmitype/StillImage" /><dc:title></dc:title></cc:Work></rdf:RDF></metadata><defs
     id="defs160"><clipPath
       clipPathUnits="userSpaceOnUse"
       id="clipPath172"><path
         d="M 0,70 H 112.497 V 0 H 0 Z"
         id="path170" /></clipPath></defs><g
     id="g164"
     transform="matrix(1.3333333,0,0,-1.3333333,0,93.333333)"><g
       id="g166"><g
         id="g168"
         clip-path="url(#clipPath172)"><g
           id="g174"
           transform="translate(41.9386,39.4683)"><path
             d="m 0,0 c -0.927,0 -1.682,-0.755 -1.682,-1.682 v -5.15 c 0,-0.926 0.755,-1.681 1.682,-1.681 h 28.62 c 0.927,0 1.682,0.755 1.682,1.681 v 5.15 C 30.302,-0.755 29.547,0 28.62,0 Z m -34.862,0.792 c -0.897,0 -1.627,-0.73 -1.627,-1.626 v -7.318 c 0,-0.898 0.73,-1.628 1.627,-1.628 0.898,0 1.628,0.73 1.628,1.628 v 7.318 c 0,0.896 -0.73,1.626 -1.628,1.626 m 98.344,0 c -0.899,0 -1.629,-0.73 -1.629,-1.626 v -7.318 c 0,-0.898 0.73,-1.628 1.629,-1.628 0.896,0 1.627,0.73 1.627,1.628 v 7.318 c 0,0.896 -0.731,1.626 -1.627,1.626 m -87.465,17.444 c -1.22,0 -2.212,-0.992 -2.212,-2.212 v -40.719 c 0,-1.218 0.992,-2.209 2.212,-2.209 1.22,0 2.212,0.991 2.212,2.209 v 40.719 c 0,1.22 -0.992,2.212 -2.212,2.212 m 76.585,0 c -1.22,0 -2.212,-0.992 -2.212,-2.212 v -40.719 c 0,-1.218 0.992,-2.209 2.212,-2.209 1.22,0 2.213,0.991 2.213,2.209 v 40.719 c 0,1.22 -0.993,2.212 -2.213,2.212 m -63.536,5.256 c -1.22,0 -2.212,-0.992 -2.212,-2.211 v -51.496 c 0,-1.22 0.992,-2.213 2.212,-2.213 1.219,0 2.211,0.993 2.211,2.213 v 51.496 c 0,1.219 -0.992,2.211 -2.211,2.211 m 50.488,0 c -1.22,0 -2.211,-0.992 -2.211,-2.211 v -51.496 c 0,-1.22 0.991,-2.213 2.211,-2.213 1.22,0 2.212,0.993 2.212,2.213 v 51.496 c 0,1.219 -0.992,2.211 -2.212,2.211 m -0.002,-62.96 c -0.204,0 -0.408,0.006 -0.614,0.018 -4.842,0.321 -8.636,4.495 -8.636,9.505 v 14.314 H -1.682 v -14.314 c 0,-5.01 -3.791,-9.184 -8.631,-9.505 -0.212,-0.012 -0.417,-0.018 -0.62,-0.018 -3.448,0 -6.588,1.899 -8.194,4.957 -0.329,0.631 -0.977,1.022 -1.69,1.022 -0.192,0 -0.386,-0.028 -0.576,-0.084 -0.842,-0.248 -1.713,-0.373 -2.59,-0.373 -5.1,0 -9.251,4.151 -9.251,9.251 v 5.138 c 0,0.869 -0.597,1.63 -1.418,1.807 -4.223,0.914 -7.286,4.715 -7.286,9.042 v 8.01 c 0,4.375 3.105,8.187 7.385,9.064 0.764,0.155 1.319,0.864 1.319,1.687 v 5.971 c 0,5.102 4.151,9.253 9.251,9.253 0.962,0 1.914,-0.15 2.828,-0.445 0.175,-0.058 0.358,-0.087 0.546,-0.087 0.642,0 1.23,0.351 1.534,0.917 1.619,3.004 4.738,4.87 8.139,4.87 0.238,0 0.476,-0.008 0.718,-0.026 4.786,-0.363 8.536,-4.531 8.536,-9.488 V 6.961 h 31.984 v 14.057 c 0,4.956 3.75,9.124 8.535,9.487 0.243,0.019 0.481,0.027 0.718,0.027 3.403,0 6.522,-1.865 8.139,-4.869 0.305,-0.566 0.893,-0.918 1.536,-0.918 0.185,0 0.369,0.03 0.549,0.088 0.91,0.295 1.86,0.444 2.823,0.444 5.102,0 9.251,-4.151 9.251,-9.253 v -5.971 c 0,-0.823 0.555,-1.532 1.319,-1.687 4.28,-0.877 7.387,-4.689 7.387,-9.064 v -8.01 c 0,-4.327 -3.065,-8.128 -7.287,-9.042 -0.822,-0.177 -1.419,-0.938 -1.419,-1.807 v -5.138 c 0,-5.1 -4.149,-9.251 -9.251,-9.251 -0.876,0 -1.748,0.126 -2.593,0.374 -0.188,0.056 -0.381,0.083 -0.572,0.083 -0.713,0 -1.36,-0.39 -1.689,-1.02 -1.608,-3.059 -4.748,-4.959 -8.196,-4.959"
             style="fill:#42538d;fill-opacity:1;fill-rule:nonzero;stroke:none"
             id="path176" /></g></g></g></g></svg>
