<?xml version="1.0" encoding="UTF-8" standalone="no"?>
<!-- Created with Inkscape (http://www.inkscape.org/) -->

<svg
   version="1.1"
   id="svg189"
   xml:space="preserve"
   width="200"
   height="200"
   viewBox="0 0 200 200"
   sodipodi:docname="Hide Password.ai.svg"
   inkscape:version="1.1 (c4e8f9e, 2021-05-24)"
   xmlns:inkscape="http://www.inkscape.org/namespaces/inkscape"
   xmlns:sodipodi="http://sodipodi.sourceforge.net/DTD/sodipodi-0.dtd"
   xmlns="http://www.w3.org/2000/svg"
   xmlns:svg="http://www.w3.org/2000/svg"><defs
     id="defs193"><clipPath
       clipPathUnits="userSpaceOnUse"
       id="clipPath203"><path
         d="M 0,150 H 150 V 0 H 0 Z"
         id="path201" /></clipPath></defs><sodipodi:namedview
     id="namedview191"
     pagecolor="#ffffff"
     bordercolor="#666666"
     borderopacity="1.0"
     inkscape:pageshadow="2"
     inkscape:pageopacity="0.0"
     inkscape:pagecheckerboard="0"
     showgrid="false"
     inkscape:zoom="2.79"
     inkscape:cx="99.820789"
     inkscape:cy="100"
     inkscape:window-width="1346"
     inkscape:window-height="780"
     inkscape:window-x="0"
     inkscape:window-y="25"
     inkscape:window-maximized="0"
     inkscape:current-layer="g195" /><g
     id="g195"
     inkscape:groupmode="layer"
     inkscape:label="Hide Password"
     transform="matrix(1.3333333,0,0,-1.3333333,0,200)"><g
       id="g197"><g
         id="g199"
         clip-path="url(#clipPath203)"><g
           id="g205"
           transform="translate(75.5637,111.8357)"><path
             d="m 0,0 c 7.521,0 14.885,-1.162 21.889,-3.454 5.197,-1.701 10.136,-3.976 14.681,-6.76 18.969,-11.626 25.581,-22.35 27.834,-27.708 0.04,-0.096 0.039,-0.18 0.017,-0.213 -3.71,-5.564 -11.902,-16.012 -25.37,-24.173 l 7.249,-7.25 c 13.968,9.005 22.527,20.004 26.442,25.876 1.905,2.858 2.211,6.471 0.88,9.637 C 70.716,-27.137 62.846,-14.59 41.794,-1.688 36.19,1.747 30.506,4.248 24.999,6.05 7.587,11.748 -11.162,11.132 -28.367,5.109 l 7.979,-7.978 C -13.687,-0.991 -6.787,0 0,0"
             style="fill:#42538d;fill-opacity:1;fill-rule:nonzero;stroke:none"
             id="path207" /></g><g
           id="g209"
           transform="translate(85.7786,39.051)"><path
             d="m 0,0 c -3.761,-0.589 -7.563,-0.887 -11.303,-0.887 -33.795,0 -56.209,24.372 -56.431,24.618 -3.539,3.924 -7.187,9.314 -7.952,11.669 0.596,2.251 4.703,14.546 25.218,26.097 l -7.307,7.306 C -82.955,53.67 -85.607,36.84 -85.607,36.84 c -1.747,-6.35 10.429,-19.787 10.429,-19.787 0,0 30.445,-34.172 76.724,-26.933 5.57,0.872 10.737,2.197 15.517,3.846 L 9.069,1.959 C 6.188,1.163 3.171,0.496 0,0"
             style="fill:#42538d;fill-opacity:1;fill-rule:nonzero;stroke:none"
             id="path211" /></g><g
           id="g213"
           transform="translate(74.9999,91.7394)"><path
             d="m 0,0 c 9.23,0 16.739,-7.509 16.739,-16.739 0,-0.819 -0.079,-1.617 -0.193,-2.404 l 8.065,-8.065 c 1.369,3.216 2.128,6.753 2.128,10.469 C 26.739,-1.972 14.768,10 0,10 -3.715,10 -7.253,9.241 -10.468,7.871 l 8.064,-8.064 C -1.617,-0.079 -0.818,0 0,0"
             style="fill:#42538d;fill-opacity:1;fill-rule:nonzero;stroke:none"
             id="path215" /></g><g
           id="g217"
           transform="translate(74.9999,58.2604)"><path
             d="m 0,0 c -9.23,0 -16.739,7.51 -16.739,16.74 0,0.818 0.079,1.617 0.193,2.404 l -8.065,8.064 C -25.98,23.993 -26.739,20.455 -26.739,16.74 -26.739,1.972 -14.768,-10 0,-10 c 3.715,0 7.253,0.76 10.469,2.129 L 2.405,0.193 C 1.617,0.079 0.819,0 0,0"
             style="fill:#42538d;fill-opacity:1;fill-rule:nonzero;stroke:none"
             id="path219" /></g><g
           id="g221"
           transform="translate(148.5356,8.5351)"><path
             d="m 0,0 -140,140 c -1.953,1.953 -5.119,1.953 -7.071,0 v 0 c -1.953,-1.952 -1.953,-5.118 0,-7.07 l 140,-140.001 c 1.953,-1.952 5.118,-1.952 7.071,0 1.953,1.953 1.953,5.118 0,7.071"
             style="fill:#42538d;fill-opacity:1;fill-rule:nonzero;stroke:none"
             id="path223" /></g></g></g></g></svg>
