<?xml version="1.0" encoding="UTF-8" standalone="no"?>
<svg
   xmlns:dc="http://purl.org/dc/elements/1.1/"
   xmlns:cc="http://creativecommons.org/ns#"
   xmlns:rdf="http://www.w3.org/1999/02/22-rdf-syntax-ns#"
   xmlns:svg="http://www.w3.org/2000/svg"
   xmlns="http://www.w3.org/2000/svg"
   version="1.1"
   id="svg28"
   xml:space="preserve"
   width="200"
   height="200"
   viewBox="0 0 200 200"><metadata
     id="metadata34"><rdf:RDF><cc:Work
         rdf:about=""><dc:format>image/svg+xml</dc:format><dc:type
           rdf:resource="http://purl.org/dc/dcmitype/StillImage" /><dc:title></dc:title></cc:Work></rdf:RDF></metadata><defs
     id="defs32"><clipPath
       clipPathUnits="userSpaceOnUse"
       id="clipPath44"><path
         d="M 0,150 H 150 V 0 H 0 Z"
         id="path42" /></clipPath></defs><g
     id="g36"
     transform="matrix(1.3333333,0,0,-1.3333333,0,200)"><g
       id="g38"><g
         id="g40"
         clip-path="url(#clipPath44)"><g
           id="g46"
           transform="translate(88.0641,69.5501)"><path
             d="m 0,0 c 2.068,0 3.751,-1.683 3.751,-3.751 v -52.136 l 24.907,0.006 c 4.918,0 8.919,3.999 8.919,8.916 V 25.302 L -2.879,59.644 c -2.126,1.803 -4.833,2.797 -7.624,2.797 -2.688,0 -5.318,-0.929 -7.408,-2.618 l -45.543,-36.82 0.004,-69.968 c 0,-4.917 4,-8.916 8.915,-8.916 h 27.319 l -0.006,52.13 c 0,2.068 1.683,3.751 3.75,3.751 z m -62.898,-68.882 c -8.651,0 -14.929,5.703 -14.929,13.561 v 64.38 l 0.088,2.196 -1.434,-0.356 c -0.564,-0.138 -1.139,-0.207 -1.711,-0.207 -2.182,0 -4.219,0.971 -5.587,2.667 -1.204,1.489 -1.755,3.362 -1.552,5.275 0.204,1.909 1.138,3.625 2.63,4.831 l 64.83,52.69 c 2.893,2.339 6.537,3.627 10.258,3.627 3.868,0 7.623,-1.38 10.573,-3.886 L 26.449,53.642 26.44,64.095 c 0,2.275 1.85,4.125 4.125,4.125 h 17.262 c 2.274,0 4.125,-1.85 4.125,-4.125 V 31.957 l 7.487,-6.21 c 1.448,-1.239 2.327,-2.977 2.475,-4.893 0.148,-1.911 -0.459,-3.767 -1.708,-5.227 -1.366,-1.596 -3.355,-2.511 -5.458,-2.511 -0.486,0 -0.977,0.05 -1.461,0.15 l -1.342,0.278 0.007,-68.865 c 0,-7.858 -6.284,-13.561 -14.942,-13.561 z"
             style="fill:#42538d;fill-opacity:1;fill-rule:nonzero;stroke:none"
             id="path48" /></g></g></g></g></svg>
