<?xml version="1.0" encoding="UTF-8" standalone="no"?>
<svg
   xmlns:dc="http://purl.org/dc/elements/1.1/"
   xmlns:cc="http://creativecommons.org/ns#"
   xmlns:rdf="http://www.w3.org/1999/02/22-rdf-syntax-ns#"
   xmlns:svg="http://www.w3.org/2000/svg"
   xmlns="http://www.w3.org/2000/svg"
   version="1.1"
   id="svg162"
   xml:space="preserve"
   width="200"
   height="200"
   viewBox="0 0 200 200"><metadata
     id="metadata168"><rdf:RDF><cc:Work
         rdf:about=""><dc:format>image/svg+xml</dc:format><dc:type
           rdf:resource="http://purl.org/dc/dcmitype/StillImage" /><dc:title></dc:title></cc:Work></rdf:RDF></metadata><defs
     id="defs166"><clipPath
       clipPathUnits="userSpaceOnUse"
       id="clipPath178"><path
         d="M 0,150 H 150 V 0 H 0 Z"
         id="path176" /></clipPath></defs><g
     id="g170"
     transform="matrix(1.3333333,0,0,-1.3333333,0,200)"><g
       id="g172"><g
         id="g174"
         clip-path="url(#clipPath178)"><g
           id="g180"
           transform="translate(70.6612,42.0748)"><path
             d="M 0,0 C -0.319,0.01 -0.635,0.071 -0.941,0.18 -1.13,0.258 -1.319,0.36 -1.492,0.478 L -1.569,0.53 h -0.097 c -0.145,0.123 -0.282,0.258 -0.41,0.404 L -2.183,1.063 C -2.31,1.256 -2.435,1.489 -2.533,1.734 L -20.741,54.725 -31.332,24.451 c -0.397,-1.121 -1.464,-1.876 -2.657,-1.876 h -34.117 c -1.349,0.115 -2.429,1.196 -2.545,2.569 -0.064,0.75 0.169,1.479 0.654,2.054 0.486,0.574 1.166,0.926 1.916,0.989 l 32.338,-0.001 12.624,36.071 V 64.4 l 0.109,0.252 0.132,0.201 0.167,0.229 0.19,0.185 0.209,0.187 0.219,0.157 c 0.071,0.062 0.126,0.097 0.186,0.123 l 0.309,0.133 0.368,-0.024 h 1.702 l 0.227,-0.106 0.208,-0.136 0.228,-0.166 c 0.059,-0.043 0.111,-0.095 0.154,-0.154 l 0.032,-0.044 0.045,-0.03 c 0.042,-0.028 0.076,-0.066 0.101,-0.113 l 0.231,-0.292 0.101,-0.196 c 0.048,-0.079 0.087,-0.152 0.119,-0.225 V 64.286 L 0.31,10.767 14.583,47.106 c 0.264,0.714 0.811,1.292 1.504,1.591 0.35,0.151 0.72,0.227 1.097,0.227 1.108,0 2.108,-0.657 2.546,-1.673 l 8.729,-19.197 h 14.942 c 1.347,-0.115 2.428,-1.196 2.545,-2.569 0.129,-1.547 -1.023,-2.912 -2.57,-3.044 l -17.045,0.001 c -1.094,0.001 -2.098,0.645 -2.557,1.639 L 17.046,38.903 2.414,1.488 C 2.318,1.271 2.189,1.054 2.035,0.856 1.926,0.732 1.794,0.612 1.649,0.508 H 1.524 L 1.45,0.462 C 1.259,0.341 1.053,0.238 0.84,0.157 0.571,0.054 0.288,0.002 0,0"
             style="fill:#42538d;fill-opacity:1;fill-rule:nonzero;stroke:none"
             id="path182" /></g><g
           id="g184"
           transform="translate(79.6718,10.2483)"><path
             d="m 0,0 c -3.535,0 -6.955,0.775 -10.165,2.302 -12.078,5.616 -27.178,17.909 -36.096,26.954 -1.282,1.298 -1.95,3.01 -1.885,4.821 0.066,1.787 0.842,3.421 2.188,4.599 1.182,1.037 2.698,1.607 4.269,1.607 1.726,0 3.338,-0.673 4.538,-1.895 8.11,-8.259 21.735,-19.419 32.489,-24.409 1.439,-0.693 3.049,-1.06 4.65,-1.06 1.951,0 3.866,0.532 5.538,1.539 48.235,28.977 53.095,57.053 51.699,71.209 -1.588,15.981 -11.656,26.599 -20.338,29.7 -2.262,0.801 -4.585,1.207 -6.906,1.207 C 13.978,116.574 2.264,97.775 1.773,96.975 1.475,96.524 1.018,96.179 0.491,96.011 0.253,95.935 0.006,95.896 -0.243,95.896 c -1.058,0 -1.986,0.679 -2.306,1.689 -0.154,0.557 -4.056,13.952 -22.246,18.505 -1.586,0.301 -3.192,0.451 -4.788,0.451 -3.692,0 -7.266,-0.774 -10.625,-2.303 -10.097,-5.302 -15.861,-13.371 -17.147,-23.988 -0.351,-3.04 -0.341,-6.117 0.031,-9.15 0.391,-3.197 -1.574,-6.143 -4.671,-7.007 -0.572,-0.159 -1.159,-0.24 -1.747,-0.24 -3.244,0 -5.99,2.396 -6.386,5.574 -0.507,4.06 -0.524,8.199 -0.05,12.302 1.806,14.916 10.089,26.65 23.954,33.93 l 0.677,0.331 c 5.053,2.3 10.413,3.467 15.923,3.467 2.404,0 4.83,-0.229 7.213,-0.68 l 0.759,-0.166 c 8.961,-2.243 16.446,-6.388 22.239,-12.316 l 0.208,-0.212 0.216,0.205 c 6.319,6.029 16.476,13.215 28.972,13.215 3.751,0 7.522,-0.661 11.211,-1.967 12.82,-4.581 26.721,-18.909 28.875,-40.591 C 71.766,69.749 66.497,36.028 12.173,3.392 8.488,1.173 4.279,0 0,0"
             style="fill:#42538d;fill-opacity:1;fill-rule:nonzero;stroke:none"
             id="path186" /></g></g></g></g></svg>
