<?xml version="1.0" encoding="UTF-8" standalone="no"?>
<svg
   xmlns:dc="http://purl.org/dc/elements/1.1/"
   xmlns:cc="http://creativecommons.org/ns#"
   xmlns:rdf="http://www.w3.org/1999/02/22-rdf-syntax-ns#"
   xmlns:svg="http://www.w3.org/2000/svg"
   xmlns="http://www.w3.org/2000/svg"
   version="1.1"
   id="svg282"
   xml:space="preserve"
   width="200"
   height="200"
   viewBox="0 0 200 200"><metadata
     id="metadata288"><rdf:RDF><cc:Work
         rdf:about=""><dc:format>image/svg+xml</dc:format><dc:type
           rdf:resource="http://purl.org/dc/dcmitype/StillImage" /><dc:title></dc:title></cc:Work></rdf:RDF></metadata><defs
     id="defs286"><clipPath
       clipPathUnits="userSpaceOnUse"
       id="clipPath298"><path
         d="M 0,150 H 150 V 0 H 0 Z"
         id="path296" /></clipPath></defs><g
     id="g290"
     transform="matrix(1.3333333,0,0,-1.3333333,0,200)"><g
       id="g292"><g
         id="g294"
         clip-path="url(#clipPath298)"><g
           id="g300"
           transform="translate(84.5441,56.4982)"><path
             d="m 0,0 c -0.592,0.47 -3.357,1.307 -4.229,1.47 l -0.422,0.079 c -0.693,0.142 -1.392,0.249 -2.095,0.32 l -0.482,0.059 c -0.686,0.077 -1.377,0.115 -2.068,0.111 -0.691,0.008 -1.382,-0.025 -2.069,-0.098 l -0.722,-0.085 c -1.169,-0.082 -2.32,-0.326 -3.422,-0.726 -0.979,-0.226 -1.893,-0.672 -2.674,-1.306 -0.277,-0.165 -0.463,-0.45 -0.501,-0.771 0.069,-0.374 0.31,-0.692 0.651,-0.856 0.537,-0.354 1.122,-0.627 1.737,-0.811 3.933,-1.195 8.099,-1.39 12.126,-0.568 1.414,0.283 2.786,0.751 4.079,1.392 0.333,0.136 0.577,0.43 0.65,0.784 C 0.551,-0.598 0.341,-0.221 0,0"
             style="fill:#42538d;fill-opacity:1;fill-rule:nonzero;stroke:none"
             id="path302" /></g><g
           id="g304"
           transform="translate(84.3851,70.1828)"><path
             d="M 0,0 C -0.147,0.047 -0.296,0.086 -0.446,0.116 -3.09,0.728 -5.796,1.034 -8.509,1.028 -10.608,1.02 -12.704,0.86 -14.78,0.549 c -1.308,-0.237 -2.594,-0.581 -3.846,-1.028 l -1.031,-0.332 c -0.285,-0.093 -0.577,-0.255 -0.57,-1.051 h -0.007 v -6.538 -2.79 -0.1 c 3.846,2.148 8.263,2.442 11.725,2.457 h 0.054 C -4.677,-8.85 -0.944,-9.667 2.5,-11.228 v 7.812 C 2.5,-0.819 2.5,-0.819 0,0"
             style="fill:#42538d;fill-opacity:1;fill-rule:nonzero;stroke:none"
             id="path306" /></g><g
           id="g308"
           transform="translate(99.1282,83.9532)"><path
             d="m 0,0 c -0.807,-1.453 -1.776,-2.809 -2.889,-4.042 -0.371,-0.437 -0.725,-0.849 -1.063,-1.277 -0.627,-0.809 -1.279,-1.552 -1.915,-2.304 -0.805,-0.954 -1.61,-1.94 -2.415,-2.951 -0.921,-1.258 -1.381,-2.797 -1.304,-4.357 0.057,-4.794 0.073,-9.701 0.081,-13.396 0.026,-1.454 -0.884,-2.76 -2.254,-3.233 -1.968,-0.802 -4.005,-1.424 -6.084,-1.86 -1.958,-0.354 -3.943,-0.533 -5.932,-0.533 -3.12,0.004 -6.224,0.442 -9.224,1.301 -0.712,0.213 -1.407,0.483 -2.076,0.809 -1.646,0.686 -2.661,2.363 -2.511,4.147 0.048,1.301 0.04,2.635 0,3.921 v 1.334 0.388 2.118 0.072 c 0,1.884 0,3.816 -0.057,5.708 -0.094,0.661 -0.396,1.276 -0.861,1.754 -0.764,0.808 -1.609,1.617 -2.414,2.336 -0.805,0.72 -1.65,1.552 -2.415,2.353 l -0.483,0.509 c -1.384,1.354 -2.64,2.834 -3.75,4.422 -1.784,2.581 -2.06,5.922 -0.725,8.763 1.439,3.194 4.377,5.45 7.823,6.007 3.011,0.412 6.129,0.272 8.962,-0.48 l 2.318,-0.59 2.536,-0.638 c 0.321,-0.089 0.346,-0.097 0.523,0.21 3.412,5.898 10.763,6.885 16.486,3.975 1.081,-0.549 2,-1.375 2.826,-2.267 0.202,-0.203 0.46,-0.34 0.74,-0.396 C -3.453,11.343 -1.199,9.665 0,7.276 1.162,4.991 1.162,2.285 0,0 M 50.491,19.158 C 47.868,38.793 31.903,54.345 12.105,56.354 -1.521,57.737 -13.25,53.451 -23.12,43.995 c -0.336,-0.322 -0.676,-0.639 -1.159,-1.094 -0.386,0.477 -0.629,0.854 -0.944,1.155 C -35.449,53.83 -47.63,57.987 -61.639,56.241 -79.22,54.05 -93.922,40.609 -97.942,23.37 c -0.483,-2.075 -0.795,-4.19 -1.186,-6.286 V 9.468 c 0.095,-0.324 0.21,-0.643 0.284,-0.972 0.744,-3.318 1.217,-6.725 2.271,-9.941 3.502,-10.693 9.689,-19.85 16.943,-28.303 15.015,-17.497 32.947,-31.527 52.378,-43.756 2.206,-1.388 4.214,-1.368 6.399,0.014 16.763,10.606 32.403,22.617 46.149,36.976 7.86,8.211 14.859,17.079 19.877,27.361 4.365,8.942 6.657,18.29 5.318,28.311"
             style="fill:#42538d;fill-opacity:1;fill-rule:nonzero;stroke:none"
             id="path310" /></g><g
           id="g312"
           transform="translate(91.7008,92.8092)"><path
             d="M 0,0 C 0.068,-0.03 0.148,-0.326 0.174,-0.388 0.319,-0.739 0.443,-1.099 0.549,-1.464 0.885,-2.617 1.044,-3.83 0.964,-5.03 0.86,-6.615 0.315,-8.137 -0.627,-9.414 c -0.573,-0.776 -1.27,-1.453 -2.028,-2.045 -0.69,-0.54 -1.557,-1.277 -2.495,-1.164 -0.731,0.088 0.212,1.135 0.402,1.331 0.746,0.769 1.599,1.402 2.264,2.247 0.631,0.803 1.152,1.699 1.487,2.667 0.43,1.245 0.521,2.582 0.249,3.872 -0.383,1.827 -1.268,3.676 -2.862,4.711 -0.929,0.603 -1.942,1.086 -3,1.41 -3.519,1.076 -6.967,-0.062 -9.49,-2.694 -0.477,-0.498 -0.782,-0.951 -1.017,-1.558 0.006,0.007 0.004,-0.035 0.055,-0.037 0.268,-0.011 0.535,-0.037 0.802,-0.064 0.494,-0.048 0.99,-0.127 1.486,-0.157 1.06,-0.063 2.125,0.064 3.168,0.244 0.851,0.147 1.708,0.728 2.597,0.527 0.024,-0.005 0.048,-0.011 0.071,-0.018 0.158,-0.045 0.492,-0.137 0.452,-0.362 -0.033,-0.184 -0.306,-0.316 -0.448,-0.394 -0.888,-0.486 -1.861,-0.83 -2.859,-0.999 -0.847,-0.143 -1.71,-0.189 -2.568,-0.183 -2.867,0.019 -5.696,0.594 -8.467,1.29 -2.381,0.598 -4.656,1.319 -7.137,1.261 -2.518,-0.06 -5.457,-0.99 -6.79,-3.26 -1.136,-1.937 -1.707,-4.254 -0.931,-6.43 0.548,-1.535 1.746,-2.663 2.877,-3.776 1.008,-0.991 1.987,-2.012 2.977,-3.021 0.948,-0.966 2.368,-1.904 3.316,-2.87 0.095,-0.097 1.133,-1.315 1.247,-1.272 0,0 1.06,0.401 2.837,0.837 -0.091,0.211 -0.285,0.554 -0.378,0.697 -0.657,1.006 -1.402,2.002 -2.142,2.968 -0.696,0.907 -1.391,1.818 -1.832,2.884 -0.263,0.634 -0.954,2.355 -0.466,2.996 0.138,0.182 0.331,0.18 0.511,0.069 0.325,-0.202 0.488,-0.522 0.588,-0.882 1.112,-3.251 4.211,-7.024 5.372,-8.366 4.311,0.853 11.135,1.438 17.814,-1.173 -0.151,0.059 0.788,2.06 0.846,2.169 1.568,2.953 4.846,4.55 6.787,7.216 1.587,2.178 2.992,5.226 1.348,7.767 C 3.177,-1.678 1.383,-0.609 0,0"
             style="fill:#42538d;fill-opacity:1;fill-rule:nonzero;stroke:none"
             id="path314" /></g></g></g></g></svg>
