<?xml version="1.0" encoding="UTF-8" standalone="no"?>
<svg
   xmlns:dc="http://purl.org/dc/elements/1.1/"
   xmlns:cc="http://creativecommons.org/ns#"
   xmlns:rdf="http://www.w3.org/1999/02/22-rdf-syntax-ns#"
   xmlns:svg="http://www.w3.org/2000/svg"
   xmlns="http://www.w3.org/2000/svg"
   version="1.1"
   id="svg352"
   xml:space="preserve"
   width="200"
   height="200"
   viewBox="0 0 200 200"><metadata
     id="metadata358"><rdf:RDF><cc:Work
         rdf:about=""><dc:format>image/svg+xml</dc:format><dc:type
           rdf:resource="http://purl.org/dc/dcmitype/StillImage" /><dc:title></dc:title></cc:Work></rdf:RDF></metadata><defs
     id="defs356"><clipPath
       clipPathUnits="userSpaceOnUse"
       id="clipPath368"><path
         d="M 0,150 H 150 V 0 H 0 Z"
         id="path366" /></clipPath></defs><g
     id="g360"
     transform="matrix(1.3333333,0,0,-1.3333333,0,200)"><g
       id="g362"><g
         id="g364"
         clip-path="url(#clipPath368)"><g
           id="g370"
           transform="translate(93.207,101.408)"><path
             d="m 0,0 c -1.097,0 -1.99,-0.893 -1.99,-1.99 v -37.14 c 0,-1.097 0.893,-1.99 1.99,-1.99 1.097,0 1.99,0.893 1.99,1.99 V -1.99 C 1.99,-0.893 1.097,0 0,0"
             style="fill:#42538d;fill-opacity:1;fill-rule:nonzero;stroke:none"
             id="path372" /></g><g
           id="g374"
           transform="translate(56.7929,101.7121)"><path
             d="m 0,0 c -1.097,0 -1.99,-0.893 -1.99,-1.99 v -37.14 c 0,-1.097 0.893,-1.99 1.99,-1.99 1.097,0 1.99,0.893 1.99,1.99 V -1.99 C 1.99,-0.893 1.097,0 0,0"
             style="fill:#42538d;fill-opacity:1;fill-rule:nonzero;stroke:none"
             id="path376" /></g><g
           id="g378"
           transform="translate(47.3823,97.922)"><path
             d="m 0,0 c -1.097,0 -1.99,-0.893 -1.99,-1.99 v -29.367 c 0,-1.097 0.893,-1.99 1.99,-1.99 1.097,0 1.99,0.893 1.99,1.99 V -1.99 C 1.99,-0.893 1.097,0 0,0"
             style="fill:#42538d;fill-opacity:1;fill-rule:nonzero;stroke:none"
             id="path380" /></g><g
           id="g382"
           transform="translate(39.5357,85.3413)"><path
             d="m 0,0 c -0.867,0 -1.569,-0.702 -1.569,-1.569 v -5.277 c 0,-0.867 0.702,-1.569 1.569,-1.569 0.867,0 1.569,0.702 1.569,1.569 v 5.277 C 1.569,-0.702 0.867,0 0,0"
             style="fill:#42538d;fill-opacity:1;fill-rule:nonzero;stroke:none"
             id="path384" /></g><g
           id="g386"
           transform="translate(85.3213,84.4652)"><path
             d="m 0,0 h -20.467 c -0.888,0 -1.609,-0.72 -1.609,-1.608 v -3.713 c 0,-0.889 0.721,-1.609 1.609,-1.609 H 0 c 0.888,0 1.608,0.72 1.608,1.609 v 3.713 C 1.608,-0.72 0.888,0 0,0"
             style="fill:#42538d;fill-opacity:1;fill-rule:nonzero;stroke:none"
             id="path388" /></g><g
           id="g390"
           transform="translate(115.1731,77.79)"><path
             d="m 0,0 c 0,-3.009 -2.117,-5.524 -4.943,-6.136 -0.786,-0.17 -1.335,-0.885 -1.335,-1.689 v -3.704 c 0,-3.467 -2.81,-6.278 -6.278,-6.278 -0.611,0 -1.201,0.089 -1.758,0.253 -0.826,0.244 -1.694,-0.108 -2.093,-0.87 -1.11,-2.117 -3.389,-3.522 -5.981,-3.352 -3.331,0.218 -5.856,3.121 -5.856,6.46 v 10.717 h -23.859 v -10.413 c 0,-3.339 -2.524,-6.242 -5.855,-6.46 -2.592,-0.17 -4.872,1.235 -5.981,3.352 -0.4,0.762 -1.268,1.114 -2.093,0.87 -0.558,-0.164 -1.148,-0.253 -1.759,-0.253 -3.467,0 -6.277,2.811 -6.277,6.278 v 3.704 c 0,0.804 -0.549,1.519 -1.335,1.689 -2.826,0.612 -4.943,3.127 -4.943,6.136 v 5.777 c 0,3.034 2.152,5.565 5.012,6.15 0.748,0.153 1.266,0.841 1.266,1.604 v 4.307 c 0,3.467 2.81,6.278 6.277,6.278 0.669,0 1.312,-0.106 1.916,-0.302 0.765,-0.247 1.591,0.079 1.972,0.788 1.13,2.099 3.417,3.482 6.011,3.285 3.303,-0.249 5.789,-3.135 5.789,-6.448 V 10.906 h 23.859 v 10.533 c 0,3.313 2.487,6.199 5.79,6.448 2.594,0.197 4.881,-1.186 6.011,-3.285 0.381,-0.709 1.207,-1.035 1.972,-0.788 0.603,0.196 1.247,0.302 1.915,0.302 3.468,0 6.278,-2.811 6.278,-6.278 v -4.307 c 0,-0.763 0.518,-1.451 1.265,-1.604 C -2.152,11.342 0,8.811 0,5.777 Z M 34.446,25.321 C 31.823,44.956 15.858,60.508 -3.94,62.517 -17.565,63.9 -29.295,59.614 -39.165,50.158 c -0.336,-0.321 -0.676,-0.638 -1.158,-1.094 -0.387,0.477 -0.63,0.854 -0.945,1.155 -10.226,9.775 -22.406,13.932 -36.416,12.186 -17.581,-2.192 -32.283,-15.633 -36.302,-32.872 -0.484,-2.075 -0.796,-4.19 -1.187,-6.286 v -7.616 c 0.096,-0.324 0.21,-0.643 0.284,-0.972 0.745,-3.318 1.217,-6.724 2.271,-9.941 3.502,-10.692 9.689,-19.85 16.943,-28.303 15.015,-17.497 32.947,-31.526 52.378,-43.756 2.206,-1.388 4.214,-1.368 6.399,0.014 16.763,10.606 32.403,22.617 46.149,36.976 7.861,8.211 14.859,17.079 19.877,27.361 4.365,8.942 6.657,18.29 5.318,28.311"
             style="fill:#42538d;fill-opacity:1;fill-rule:nonzero;stroke:none"
             id="path392" /></g><g
           id="g394"
           transform="translate(102.6176,97.618)"><path
             d="m 0,0 c -1.097,0 -1.99,-0.893 -1.99,-1.99 v -29.367 c 0,-1.097 0.893,-1.99 1.99,-1.99 1.097,0 1.99,0.893 1.99,1.99 V -1.99 C 1.99,-0.893 1.097,0 0,0"
             style="fill:#42538d;fill-opacity:1;fill-rule:nonzero;stroke:none"
             id="path396" /></g><g
           id="g398"
           transform="translate(110.4643,85.0373)"><path
             d="m 0,0 c -0.867,0 -1.569,-0.702 -1.569,-1.569 v -5.277 c 0,-0.867 0.702,-1.569 1.569,-1.569 0.867,0 1.569,0.702 1.569,1.569 v 5.277 C 1.569,-0.702 0.867,0 0,0"
             style="fill:#42538d;fill-opacity:1;fill-rule:nonzero;stroke:none"
             id="path400" /></g></g></g></g></svg>
