<?xml version="1.0" encoding="UTF-8" standalone="no"?>
<svg
   xmlns:dc="http://purl.org/dc/elements/1.1/"
   xmlns:cc="http://creativecommons.org/ns#"
   xmlns:rdf="http://www.w3.org/1999/02/22-rdf-syntax-ns#"
   xmlns:svg="http://www.w3.org/2000/svg"
   xmlns="http://www.w3.org/2000/svg"
   version="1.1"
   id="svg234"
   xml:space="preserve"
   width="200"
   height="200"
   viewBox="0 0 200 200"><metadata
     id="metadata240"><rdf:RDF><cc:Work
         rdf:about=""><dc:format>image/svg+xml</dc:format><dc:type
           rdf:resource="http://purl.org/dc/dcmitype/StillImage" /><dc:title></dc:title></cc:Work></rdf:RDF></metadata><defs
     id="defs238"><clipPath
       clipPathUnits="userSpaceOnUse"
       id="clipPath250"><path
         d="M 0,150 H 150 V 0 H 0 Z"
         id="path248" /></clipPath></defs><g
     id="g242"
     transform="matrix(1.3333333,0,0,-1.3333333,0,200)"><g
       id="g244"><g
         id="g246"
         clip-path="url(#clipPath250)"><g
           id="g252"
           transform="translate(72.9502,122.7598)"><path
             d="m 0,0 c 0.123,0.111 0.273,0.169 0.435,0.169 0.174,0 0.345,-0.07 0.468,-0.194 0.122,-0.122 0.189,-0.286 0.189,-0.461 l -0.024,-32.155 9.997,-9.996 0.036,48.26 c 0.002,2.227 -0.871,4.273 -2.455,5.763 -1.487,1.396 -3.502,2.197 -5.533,2.197 -1.949,0 -3.77,-0.711 -5.263,-2.056 l -21.545,-19.404 7.084,-7.084 z"
             style="fill:#42538d;fill-opacity:1;fill-rule:nonzero;stroke:none"
             id="path254" /></g><g
           id="g256"
           transform="translate(73.9731,27.625)"><path
             d="m 0,0 c 0,-0.361 -0.295,-0.654 -0.656,-0.654 -0.159,0 -0.308,0.056 -0.43,0.164 l -32.497,28.608 c -0.964,0.849 -2.203,1.316 -3.487,1.316 h -24.451 c -1.35,0 -2.448,1.098 -2.448,2.449 v 30.758 c 0,1.35 1.098,2.448 2.448,2.448 h 25.112 c 1.306,0 2.561,0.481 3.532,1.356 l 0.361,0.326 -8.321,8.322 h -20.684 c -6.866,0 -12.452,-5.586 -12.452,-12.452 V 31.883 c 0,-6.867 5.586,-12.452 12.452,-12.452 h 20.562 c 1.357,0 2.667,-0.495 3.686,-1.393 l 34.089,-30.01 c 1.483,-1.305 3.281,-1.995 5.198,-1.995 3.837,0 7.982,3.038 7.986,7.947 l 0.021,30.253 -9.996,9.997 z"
             style="fill:#42538d;fill-opacity:1;fill-rule:nonzero;stroke:none"
             id="path258" /></g><g
           id="g260"
           transform="translate(150,75)"><path
             d="m 0,0 c 0,16.747 -5.054,32.527 -14.617,45.635 -0.906,1.242 -2.36,1.985 -3.886,1.985 -0.942,0 -1.855,-0.281 -2.64,-0.81 l -0.424,-0.288 c -1.076,-0.725 -1.79,-1.827 -2.014,-3.103 -0.226,-1.287 0.076,-2.58 0.849,-3.639 8.208,-11.253 12.728,-25.38 12.728,-39.78 0,-14.021 -4.272,-27.726 -12.046,-38.813 l 7.175,-7.174 C -5.146,-32.831 0,-16.937 0,0"
             style="fill:#42538d;fill-opacity:1;fill-rule:nonzero;stroke:none"
             id="path262" /></g><g
           id="g264"
           transform="translate(118.2461,75)"><path
             d="m 0,0 c 0,9.843 -2.908,19.096 -8.411,26.757 -0.893,1.243 -2.34,1.985 -3.872,1.985 -1.216,0 -2.372,-0.461 -3.258,-1.296 l -0.431,-0.405 c -1.707,-1.613 -1.931,-4.209 -0.531,-6.173 4.192,-5.88 6.5,-13.29 6.5,-20.868 0,-5.486 -1.224,-10.854 -3.472,-15.635 l 7.429,-7.427 C -2.126,-16.215 0,-8.195 0,0"
             style="fill:#42538d;fill-opacity:1;fill-rule:nonzero;stroke:none"
             id="path266" /></g><g
           id="g268"
           transform="translate(8.5366,148.5352)"><path
             d="m 0,0 c -0.944,0.944 -2.201,1.465 -3.538,1.465 -1.335,0 -2.591,-0.52 -3.536,-1.465 -1.95,-1.951 -1.95,-5.124 0,-7.075 l 140,-139.995 c 0.945,-0.946 2.201,-1.465 3.537,-1.465 1.337,0 2.593,0.519 3.537,1.465 1.951,1.95 1.951,5.125 0,7.074 z"
             style="fill:#42538d;fill-opacity:1;fill-rule:nonzero;stroke:none"
             id="path270" /></g><g
           id="g272"
           transform="translate(60.0371,82.8882)"><path
             d="M 0,0 3.535,3.535"
             style="fill:#42538d;fill-opacity:1;fill-rule:nonzero;stroke:none"
             id="path274" /></g></g></g></g></svg>
