<?xml version="1.0" encoding="UTF-8" standalone="no"?>
<svg
   xmlns:dc="http://purl.org/dc/elements/1.1/"
   xmlns:cc="http://creativecommons.org/ns#"
   xmlns:rdf="http://www.w3.org/1999/02/22-rdf-syntax-ns#"
   xmlns:svg="http://www.w3.org/2000/svg"
   xmlns="http://www.w3.org/2000/svg"
   version="1.1"
   id="svg28"
   xml:space="preserve"
   width="200"
   height="200"
   viewBox="0 0 200 200"><metadata
     id="metadata34"><rdf:RDF><cc:Work
         rdf:about=""><dc:format>image/svg+xml</dc:format><dc:type
           rdf:resource="http://purl.org/dc/dcmitype/StillImage" /><dc:title></dc:title></cc:Work></rdf:RDF></metadata><defs
     id="defs32"><clipPath
       clipPathUnits="userSpaceOnUse"
       id="clipPath44"><path
         d="M 0,150 H 150 V 0 H 0 Z"
         id="path42" /></clipPath></defs><g
     id="g36"
     transform="matrix(1.3333333,0,0,-1.3333333,0,200)"><g
       id="g38"><g
         id="g40"
         clip-path="url(#clipPath44)"><g
           id="g46"
           transform="translate(56.6187,133.5804)"><path
             d="m 0,0 c -22.165,0 -40.198,-18.033 -40.198,-40.198 0,-22.164 18.033,-40.197 40.198,-40.197 22.165,0 40.198,18.033 40.198,40.197 C 40.198,-18.033 22.165,0 0,0 m 85.174,-133.58 c -2.193,0 -4.255,0.853 -5.805,2.405 L 33.803,-85.61 C 24.098,-92.836 12.096,-96.814 0,-96.814 c -31.219,0 -56.617,25.398 -56.617,56.617 0,31.219 25.398,56.617 56.617,56.617 31.219,0 56.617,-25.398 56.617,-56.617 0,-12.095 -3.978,-24.097 -11.204,-33.802 l 45.566,-45.567 c 1.548,-1.548 2.401,-3.609 2.401,-5.805 0,-2.195 -0.853,-4.257 -2.401,-5.804 -1.55,-1.552 -3.612,-2.405 -5.805,-2.405"
             style="fill:#42538d;fill-opacity:1;fill-rule:nonzero;stroke:none"
             id="path48" /></g></g></g></g></svg>
