<?xml version="1.0" encoding="UTF-8" standalone="no"?>
<svg
   xmlns:dc="http://purl.org/dc/elements/1.1/"
   xmlns:cc="http://creativecommons.org/ns#"
   xmlns:rdf="http://www.w3.org/1999/02/22-rdf-syntax-ns#"
   xmlns:svg="http://www.w3.org/2000/svg"
   xmlns="http://www.w3.org/2000/svg"
   version="1.1"
   id="svg28"
   xml:space="preserve"
   width="93.321869"
   height="93.333336"
   viewBox="0 0 93.321869 93.333336"><metadata
     id="metadata34"><rdf:RDF><cc:Work
         rdf:about=""><dc:format>image/svg+xml</dc:format><dc:type
           rdf:resource="http://purl.org/dc/dcmitype/StillImage" /><dc:title></dc:title></cc:Work></rdf:RDF></metadata><defs
     id="defs32"><clipPath
       clipPathUnits="userSpaceOnUse"
       id="clipPath44"><path
         d="M 0,70 H 69.991 V 0 H 0 Z"
         id="path42" /></clipPath></defs><g
     id="g36"
     transform="matrix(1.3333333,0,0,-1.3333333,0,93.333333)"><g
       id="g38"><g
         id="g40"
         clip-path="url(#clipPath44)"><g
           id="g46"
           transform="translate(18.2457,57.606)"><path
             d="m 0,0 c -2.888,-0.067 -6.55,-1.122 -8.166,-3.875 -1.56,-2.658 -1.964,-5.396 -1.138,-7.71 0.624,-1.746 1.996,-3.093 3.324,-4.396 l 0.193,-0.19 c 0.912,-0.897 1.806,-1.814 2.7,-2.73 l 1.068,-1.094 c 0.579,-0.59 1.328,-1.192 2.053,-1.775 0.746,-0.6 1.518,-1.221 2.136,-1.851 0.027,-0.027 0.105,-0.114 0.213,-0.238 0.522,-0.59 0.884,-0.98 1.08,-1.166 0.427,0.15 1.396,0.472 2.796,0.835 -0.066,0.115 -0.128,0.219 -0.171,0.284 -0.847,1.301 -1.832,2.611 -2.684,3.721 -0.88,1.148 -1.791,2.336 -2.379,3.755 -0.909,2.194 -1.076,3.551 -0.526,4.273 0.187,0.245 0.447,0.379 0.735,0.379 0.19,0 0.38,-0.057 0.563,-0.172 0.463,-0.286 0.776,-0.744 0.958,-1.401 1.304,-3.808 4.846,-8.23 6.501,-10.164 2.995,0.575 5.996,0.867 8.924,0.867 4.674,0 9.056,-0.748 13.037,-2.224 0.299,0.95 0.986,2.289 0.997,2.308 1.153,2.171 3.007,3.782 4.8,5.339 1.36,1.181 2.766,2.402 3.812,3.838 1.855,2.547 3.653,6.22 1.688,9.257 -0.857,1.324 -2.524,2.385 -3.718,3.021 0.081,-0.232 0.155,-0.465 0.225,-0.703 0.46,-1.586 0.643,-3.16 0.543,-4.678 -0.139,-2.115 -0.868,-4.121 -2.107,-5.801 -0.699,-0.947 -1.593,-1.849 -2.655,-2.68 l -0.156,-0.123 c -0.831,-0.654 -1.863,-1.466 -3.054,-1.466 -0.101,0 -0.203,0.006 -0.305,0.018 -0.497,0.061 -0.674,0.357 -0.735,0.528 -0.215,0.611 0.396,1.418 0.948,1.987 0.364,0.376 0.749,0.727 1.132,1.077 0.617,0.562 1.198,1.093 1.695,1.723 0.811,1.033 1.416,2.118 1.8,3.227 0.518,1.498 0.621,3.099 0.299,4.63 -0.312,1.484 -1.168,4.189 -3.405,5.641 -1.161,0.755 -2.394,1.335 -3.665,1.724 -1.059,0.323 -2.136,0.487 -3.203,0.487 -3.02,0 -5.965,-1.335 -8.289,-3.76 -0.402,-0.419 -0.691,-0.803 -0.919,-1.226 0.137,-0.012 0.273,-0.026 0.409,-0.039 0.243,-0.024 0.486,-0.054 0.729,-0.083 0.376,-0.046 0.754,-0.092 1.131,-0.115 0.226,-0.013 0.454,-0.019 0.68,-0.019 0.928,0 1.918,0.099 3.21,0.322 0.337,0.058 0.689,0.182 1.062,0.313 0.577,0.203 1.176,0.413 1.818,0.413 0.203,0 0.403,-0.022 0.594,-0.065 l 0.119,-0.031 c 0.698,-0.2 1.002,-0.541 0.918,-1.016 -0.079,-0.447 -0.51,-0.68 -0.766,-0.819 -1.239,-0.677 -2.507,-1.121 -3.817,-1.342 -0.949,-0.16 -1.976,-0.238 -3.139,-0.238 h -0.191 c -3.858,0.026 -7.632,0.846 -10.814,1.645 -0.465,0.116 -0.925,0.236 -1.385,0.356 -2.417,0.631 -4.7,1.226 -7.154,1.226 z m 3.533,-42.139 c 4.782,2.416 10.134,2.759 14.321,2.777 4.692,-0.021 9.182,-0.951 13.421,-2.763 v 9.116 c 0,2.924 0,2.924 -2.819,3.847 -0.165,0.052 -0.335,0.097 -0.509,0.132 -3.282,0.76 -6.643,1.143 -10.002,1.143 -2.708,-0.01 -5.35,-0.212 -7.939,-0.6 -1.608,-0.292 -3.217,-0.721 -4.769,-1.275 L 3.92,-30.187 C 3.723,-30.251 3.535,-30.313 3.542,-31.042 L 3.547,-31.54 H 3.533 Z m 2.169,-5.029 c 0.074,-0.286 0.27,-0.525 0.535,-0.653 0.695,-0.453 1.389,-0.776 2.121,-0.995 2.901,-0.882 5.908,-1.328 8.937,-1.329 h 10e-4 c 2.059,0 4.127,0.21 6.145,0.622 1.746,0.349 3.439,0.926 5.036,1.717 0.282,0.116 0.472,0.333 0.544,0.596 -0.025,0.33 -0.201,0.63 -0.479,0.81 -0.664,0.525 -4.029,1.574 -5.168,1.788 l -0.532,0.099 c -0.862,0.178 -1.736,0.31 -2.607,0.399 l -0.619,0.075 c -0.803,0.09 -1.623,0.137 -2.432,0.137 l -0.389,0.002 c -0.763,0 -1.535,-0.042 -2.295,-0.124 l -0.907,-0.106 c -1.455,-0.103 -2.864,-0.402 -4.213,-0.89 -1.214,-0.285 -2.314,-0.822 -3.236,-1.571 -0.25,-0.154 -0.394,-0.354 -0.442,-0.577 m 11.534,-10.438 c -4.351,0.006 -8.68,0.617 -12.866,1.815 -1.01,0.301 -1.999,0.686 -2.946,1.148 -2.453,1.021 -3.968,3.521 -3.742,6.208 0.06,1.61 0.06,3.42 -10e-4,5.355 l -10e-4,5.415 c 0,2.585 0,5.259 -0.077,7.864 -0.112,0.761 -0.477,1.504 -1.049,2.093 -0.978,1.033 -2.12,2.137 -3.308,3.201 -1.043,0.932 -2.205,2.064 -3.36,3.274 l -0.669,0.703 c -1.915,1.873 -3.677,3.951 -5.222,6.161 -2.556,3.698 -2.955,8.52 -1.043,12.588 2.056,4.565 6.232,7.77 11.166,8.568 1.557,0.213 3.126,0.32 4.675,0.32 2.759,0 5.417,-0.334 7.9,-0.992 L 9.887,5.301 13.385,4.42 c 0.048,-0.013 0.087,-0.024 0.12,-0.034 0.016,0.026 0.034,0.057 0.055,0.093 2.91,5.03 8.093,7.915 14.218,7.915 3.135,0 6.313,-0.772 9.189,-2.235 1.347,-0.686 2.631,-1.713 4.038,-3.235 0.199,-0.196 0.466,-0.339 0.757,-0.397 3.747,-0.656 7.015,-3.091 8.732,-6.511 1.669,-3.282 1.669,-7.203 -0.002,-10.488 -1.138,-2.049 -2.502,-3.957 -4.061,-5.686 l -0.163,-0.191 c -0.445,-0.524 -0.872,-1.026 -1.283,-1.547 -0.671,-0.864 -1.37,-1.684 -2.046,-2.477 l -0.608,-0.715 c -1.065,-1.263 -2.152,-2.592 -3.323,-4.063 -1.19,-1.624 -1.794,-3.647 -1.695,-5.682 0.078,-6.481 0.101,-12.995 0.114,-18.513 0.039,-2.22 -1.345,-4.204 -3.444,-4.931 -2.712,-1.105 -5.565,-1.976 -8.458,-2.582 -2.736,-0.496 -5.52,-0.746 -8.288,-0.747 z"
             style="fill:#42538d;fill-opacity:1;fill-rule:nonzero;stroke:none"
             id="path48" /></g></g></g></g></svg>
