<?xml version="1.0" encoding="UTF-8" standalone="no"?>
<svg
   xmlns:dc="http://purl.org/dc/elements/1.1/"
   xmlns:cc="http://creativecommons.org/ns#"
   xmlns:rdf="http://www.w3.org/1999/02/22-rdf-syntax-ns#"
   xmlns:svg="http://www.w3.org/2000/svg"
   xmlns="http://www.w3.org/2000/svg"
   version="1.1"
   id="svg86"
   xml:space="preserve"
   width="148.05867"
   height="93.333336"
   viewBox="0 0 148.05867 93.333336"><metadata
     id="metadata92"><rdf:RDF><cc:Work
         rdf:about=""><dc:format>image/svg+xml</dc:format><dc:type
           rdf:resource="http://purl.org/dc/dcmitype/StillImage" /><dc:title></dc:title></cc:Work></rdf:RDF></metadata><defs
     id="defs90"><clipPath
       clipPathUnits="userSpaceOnUse"
       id="clipPath102"><path
         d="M 0,70 H 111.044 V 0 H 0 Z"
         id="path100" /></clipPath></defs><g
     id="g94"
     transform="matrix(1.3333333,0,0,-1.3333333,0,93.333333)"><g
       id="g96"><g
         id="g98"
         clip-path="url(#clipPath102)"><g
           id="g104"
           transform="translate(55.5447,62.6035)"><path
             d="m 0,0 c -4.395,0 -8.107,-4.587 -8.107,-10.017 0,-5.43 3.712,-10.017 8.107,-10.017 4.395,0 8.108,4.587 8.108,10.017 C 8.108,-4.587 4.395,0 0,0 m 0,-27.431 c -8.549,0 -15.504,7.812 -15.504,17.414 0,9.602 6.955,17.413 15.504,17.413 8.55,0 15.505,-7.811 15.505,-17.413 0,-9.602 -6.955,-17.414 -15.505,-17.414"
             style="fill:#42538d;fill-opacity:1;fill-rule:nonzero;stroke:none"
             id="path106" /></g><g
           id="g108"
           transform="translate(89.7596,52.4873)"><path
             d="m 0,0 c -2.935,0 -5.414,-3.02 -5.414,-6.596 0,-3.575 2.479,-6.595 5.414,-6.595 2.933,0 5.412,3.02 5.412,6.595 C 5.412,-3.02 2.933,0 0,0 m 0,-16.988 c -5.079,0 -9.211,4.662 -9.211,10.392 0,5.731 4.132,10.393 9.211,10.393 5.077,0 9.209,-4.662 9.209,-10.393 0,-5.73 -4.132,-10.392 -9.209,-10.392"
             style="fill:#42538d;fill-opacity:1;fill-rule:nonzero;stroke:none"
             id="path110" /></g><g
           id="g112"
           transform="translate(21.1795,27.8896)"><path
             d="m 0,0 c -2.879,0 -5.719,-0.64 -8.212,-1.849 -3.412,-1.658 -5.867,-3.781 -7.508,-6.491 -0.247,-0.406 -0.255,-0.918 -0.021,-1.334 0.237,-0.419 0.681,-0.68 1.16,-0.68 H 5.927 l 0.307,0.351 c 1.497,1.705 3.235,3.297 5.165,4.73 l 1.133,0.838 -1.145,0.824 C 8.146,-1.283 4.102,0 0,0 m 68.478,-0.023 c -2.881,0 -5.721,-0.639 -8.213,-1.85 -1.052,-0.51 -2.02,-1.074 -2.956,-1.726 l -1.164,-0.81 1.13,-0.857 c 1.899,-1.436 3.626,-3.038 5.135,-4.76 l 0.308,-0.352 h 20.463 c 0.48,0 0.924,0.261 1.161,0.681 0.234,0.417 0.225,0.929 -0.023,1.338 -0.325,0.538 -0.685,1.063 -1.068,1.557 -3.424,4.25 -8.942,6.779 -14.773,6.779 M 34.201,-5.04 c -4.554,0 -9.044,-1.011 -12.984,-2.923 l -0.119,-0.061 c -3.69,-1.814 -6.599,-3.92 -8.929,-6.46 -1.108,-1.208 -2.027,-2.425 -2.81,-3.718 -0.28,-0.462 -0.289,-1.043 -0.022,-1.517 0.269,-0.477 0.775,-0.774 1.322,-0.774 H 57.94 c 0.546,0 1.053,0.297 1.323,0.773 0.267,0.474 0.259,1.056 -0.021,1.519 -0.513,0.848 -1.081,1.677 -1.687,2.46 -0.348,0.432 -0.696,0.836 -1.055,1.229 -2.459,2.697 -5.467,4.889 -8.938,6.517 -4.123,1.933 -8.743,2.955 -13.361,2.955 M 4.773,-27.89 c -1.833,0.011 -3.877,0.156 -4.88,1.73 -1.047,1.644 -0.348,4.093 0.474,6.27 0.544,1.452 1.189,2.869 1.921,4.219 l 0.823,1.521 h -21.337 c -1.315,0.006 -2.226,0.159 -2.691,0.888 -0.559,0.879 -0.118,2.352 0.33,3.535 1.874,5.007 5.379,8.701 10.714,11.293 3.004,1.457 6.414,2.228 9.859,2.228 5.683,0 11.285,-2.081 15.367,-5.711 l 0.534,-0.476 0.632,0.335 c 0.479,0.253 0.965,0.505 1.464,0.747 4.938,2.397 10.541,3.664 16.205,3.664 6.268,0 12.484,-1.516 17.972,-4.383 l 0.622,-0.325 0.531,0.46 c 1.499,1.303 3.279,2.458 5.291,3.437 3.009,1.46 6.423,2.231 9.874,2.231 6.992,0 13.626,-3.073 17.751,-8.218 1.413,-1.817 2.515,-3.876 3.266,-6.114 0.453,-1.334 0.489,-2.26 0.113,-2.837 -0.349,-0.54 -1.079,-0.779 -2.362,-0.779 H 65.488 l 0.83,-1.521 c 0.974,-1.784 1.788,-3.643 2.419,-5.522 0.797,-2.345 0.833,-4.024 0.115,-5.13 -0.696,-1.066 -2.036,-1.542 -4.347,-1.542 z"
             style="fill:#42538d;fill-opacity:1;fill-rule:nonzero;stroke:none"
             id="path114" /></g><g
           id="g116"
           transform="translate(21.2815,52.5112)"><path
             d="m 0,0 c -2.934,0 -5.413,-3.021 -5.413,-6.596 0,-3.575 2.479,-6.596 5.413,-6.596 2.935,0 5.414,3.021 5.414,6.596 C 5.414,-3.021 2.935,0 0,0 m 0,-16.989 c -5.079,0 -9.21,4.662 -9.21,10.393 0,5.731 4.131,10.393 9.21,10.393 5.079,0 9.21,-4.662 9.21,-10.393 0,-5.731 -4.131,-10.393 -9.21,-10.393"
             style="fill:#42538d;fill-opacity:1;fill-rule:nonzero;stroke:none"
             id="path118" /></g></g></g></g></svg>
