<?xml version="1.0" encoding="UTF-8" standalone="no"?>
<svg
   xmlns:dc="http://purl.org/dc/elements/1.1/"
   xmlns:cc="http://creativecommons.org/ns#"
   xmlns:rdf="http://www.w3.org/1999/02/22-rdf-syntax-ns#"
   xmlns:svg="http://www.w3.org/2000/svg"
   xmlns="http://www.w3.org/2000/svg"
   version="1.1"
   id="svg214"
   xml:space="preserve"
   width="61.031601"
   height="93.304932"
   viewBox="0 0 61.031601 93.304932"><metadata
     id="metadata220"><rdf:RDF><cc:Work
         rdf:about=""><dc:format>image/svg+xml</dc:format><dc:type
           rdf:resource="http://purl.org/dc/dcmitype/StillImage" /><dc:title></dc:title></cc:Work></rdf:RDF></metadata><defs
     id="defs218"><clipPath
       clipPathUnits="userSpaceOnUse"
       id="clipPath230"><path
         d="M 0,69.979 H 45.774 V 0 H 0 Z"
         id="path228" /></clipPath></defs><g
     id="g222"
     transform="matrix(1.3333333,0,0,-1.3333333,0,93.304933)"><g
       id="g224"><g
         id="g226"
         clip-path="url(#clipPath230)"><g
           id="g232"
           transform="translate(22.8282,20.8789)"><path
             d="m 0,0 c 1.754,0 3.422,-0.556 4.823,-1.607 1.82,-1.232 3.693,-2.476 5.508,-3.682 L 12,-6.397 15.498,-8.708 V 12.47 c 0,3.408 -0.01,6.815 -0.019,10.221 v 0.11 c -0.019,6.169 -0.038,12.546 0.006,18.856 -3.277,-0.014 -6.556,-0.019 -9.834,-0.019 -3.763,0 -7.528,0.007 -11.293,0.013 0,0 -6.776,0.011 -9.71,0.012 V -8.67 l 10.557,7.082 C -3.41,-0.552 -1.748,0 0,0 m 20.967,-20.89 c -0.414,0 -0.821,0.143 -1.145,0.401 l -11.926,7.878 -1.564,1.039 C 4.36,-10.262 2.389,-8.953 0.425,-7.624 0.288,-7.501 0.147,-7.447 0,-7.447 c -0.147,0 -0.288,-0.054 -0.396,-0.155 L -19.31,-20.293 c -0.357,-0.359 -0.878,-0.573 -1.431,-0.573 -0.562,0 -1.089,0.22 -1.484,0.619 -0.478,0.484 -0.691,1.172 -0.57,1.841 l -0.004,61.628 c -0.041,1.527 0.517,2.984 1.571,4.097 1.056,1.114 2.481,1.75 4.014,1.791 h 0.381 c 3.73,0 7.467,-0.006 11.204,-0.012 3.76,-0.007 7.521,-0.013 11.28,-0.013 3.76,0 7.52,0.006 11.281,0.025 3.268,-0.061 5.907,-2.664 6.013,-5.925 -0.059,-6.83 -0.04,-13.765 -0.02,-20.472 0.011,-3.413 0.02,-6.828 0.02,-10.243 v -30.774 c 0.001,-0.432 -0.074,-0.856 -0.225,-1.26 -0.198,-0.523 -0.491,-0.894 -0.873,-1.102 -0.269,-0.146 -0.574,-0.224 -0.88,-0.224"
             style="fill:#42538d;fill-opacity:1;fill-rule:nonzero;stroke:none"
             id="path234" /></g></g></g></g></svg>
