<?xml version="1.0" encoding="UTF-8" standalone="no"?>
<!-- Created with Inkscape (http://www.inkscape.org/) -->

<svg
   version="1.1"
   id="svg41"
   xml:space="preserve"
   width="200"
   height="200"
   viewBox="0 0 200 200"
   sodipodi:docname="Vector Icon.ai.svg"
   inkscape:version="1.1 (c4e8f9e, 2021-05-24)"
   xmlns:inkscape="http://www.inkscape.org/namespaces/inkscape"
   xmlns:sodipodi="http://sodipodi.sourceforge.net/DTD/sodipodi-0.dtd"
   xmlns="http://www.w3.org/2000/svg"
   xmlns:svg="http://www.w3.org/2000/svg"><defs
     id="defs45"><clipPath
       clipPathUnits="userSpaceOnUse"
       id="clipPath55"><path
         d="M 0,150 H 150 V 0 H 0 Z"
         id="path53" /></clipPath></defs><sodipodi:namedview
     id="namedview43"
     pagecolor="#ffffff"
     bordercolor="#666666"
     borderopacity="1.0"
     inkscape:pageshadow="2"
     inkscape:pageopacity="0.0"
     inkscape:pagecheckerboard="0"
     showgrid="false"
     inkscape:zoom="2.76"
     inkscape:cx="99.818841"
     inkscape:cy="100"
     inkscape:window-width="1312"
     inkscape:window-height="778"
     inkscape:window-x="0"
     inkscape:window-y="25"
     inkscape:window-maximized="0"
     inkscape:current-layer="g47" /><g
     id="g47"
     inkscape:groupmode="layer"
     inkscape:label="Vector Icon"
     transform="matrix(1.3333333,0,0,-1.3333333,0,200)"><g
       id="g49"><g
         id="g51"
         clip-path="url(#clipPath55)"><g
           id="g57"
           transform="translate(139.9846,73.7004)"><path
             d="m 0,0 c -5.856,-8.783 -22.862,-29.746 -54.206,-34.649 -3.761,-0.589 -7.564,-0.887 -11.303,-0.887 -33.795,0 -56.209,24.372 -56.431,24.618 -3.539,3.924 -7.187,9.314 -7.952,11.669 0.678,2.56 5.888,18.114 34.628,30.787 9.789,4.316 20.454,6.597 30.843,6.597 7.521,0 14.885,-1.162 21.889,-3.454 5.197,-1.701 10.136,-3.975 14.681,-6.76 C -8.882,16.295 -2.27,5.571 -0.017,0.213 0.023,0.117 0.022,0.033 0,0 m 9.201,4.09 c -2.906,6.908 -10.776,19.455 -31.827,32.357 -5.605,3.435 -11.289,5.936 -16.796,7.738 -19.635,6.426 -40.973,4.838 -59.876,-3.497 -37.034,-16.33 -40.515,-38.498 -40.515,-38.498 -1.747,-6.349 10.429,-19.786 10.429,-19.786 0,0 30.445,-34.173 76.724,-26.933 35.362,5.532 54.508,29.273 60.981,38.983 1.905,2.857 2.212,6.47 0.88,9.636"
             style="fill:#42538d;fill-opacity:1;fill-rule:nonzero;stroke:none"
             id="path59" /></g><g
           id="g61"
           transform="translate(75,58.2604)"><path
             d="m 0,0 c -9.23,0 -16.739,7.51 -16.739,16.74 0,9.23 7.509,16.739 16.739,16.739 9.23,0 16.739,-7.509 16.739,-16.739 C 16.739,7.51 9.23,0 0,0 M 0,43.479 C -14.768,43.479 -26.739,31.507 -26.739,16.74 -26.739,1.972 -14.768,-10 0,-10 14.768,-10 26.739,1.972 26.739,16.74 26.739,31.507 14.768,43.479 0,43.479"
             style="fill:#42538d;fill-opacity:1;fill-rule:nonzero;stroke:none"
             id="path63" /></g></g></g></g></svg>
