<?xml version="1.0" encoding="UTF-8" standalone="no"?>
<svg
   xmlns:dc="http://purl.org/dc/elements/1.1/"
   xmlns:cc="http://creativecommons.org/ns#"
   xmlns:rdf="http://www.w3.org/1999/02/22-rdf-syntax-ns#"
   xmlns:svg="http://www.w3.org/2000/svg"
   xmlns="http://www.w3.org/2000/svg"
   version="1.1"
   id="svg168"
   xml:space="preserve"
   width="200"
   height="200"
   viewBox="0 0 200 200"><metadata
     id="metadata174"><rdf:RDF><cc:Work
         rdf:about=""><dc:format>image/svg+xml</dc:format><dc:type
           rdf:resource="http://purl.org/dc/dcmitype/StillImage" /><dc:title></dc:title></cc:Work></rdf:RDF></metadata><defs
     id="defs172"><clipPath
       clipPathUnits="userSpaceOnUse"
       id="clipPath184"><path
         d="M 0,150 H 150 V 0 H 0 Z"
         id="path182" /></clipPath></defs><g
     id="g176"
     transform="matrix(1.3333333,0,0,-1.3333333,0,200)"><g
       id="g178"><g
         id="g180"
         clip-path="url(#clipPath184)"><g
           id="g186"
           transform="translate(12.4521,92.7139)"><path
             d="m 0,0 c -1.35,0 -2.448,-1.098 -2.448,-2.448 v -30.759 c 0,-1.35 1.098,-2.449 2.448,-2.449 h 24.451 c 1.284,0 2.523,-0.466 3.487,-1.315 l 32.497,-28.608 c 0.122,-0.108 0.271,-0.164 0.43,-0.164 0.361,0 0.656,0.293 0.656,0.654 L 61.59,29.56 c 0,0.175 -0.067,0.339 -0.189,0.461 -0.123,0.124 -0.294,0.194 -0.468,0.194 -0.162,0 -0.312,-0.058 -0.435,-0.169 L 28.643,1.356 C 27.673,0.481 26.418,0 25.112,0 Z m 63.535,-79.057 c -1.917,0 -3.715,0.691 -5.198,1.996 l -34.089,30.01 c -1.019,0.898 -2.329,1.393 -3.686,1.393 H 0 c -6.866,0 -12.452,5.585 -12.452,12.451 v 30.759 c 0,6.866 5.586,12.452 12.452,12.452 h 21.155 c 1.381,0 2.707,0.509 3.734,1.434 l 33.459,30.135 c 1.493,1.344 3.314,2.055 5.263,2.055 2.031,0 4.046,-0.8 5.533,-2.196 1.585,-1.49 2.457,-3.536 2.455,-5.764 L 71.521,-71.108 c -0.004,-4.91 -4.149,-7.949 -7.986,-7.949"
             style="fill:#42538d;fill-opacity:1;fill-rule:nonzero;stroke:none"
             id="path188" /></g><g
           id="g190"
           transform="translate(131.4971,122.6196)"><path
             d="m 0,0 c -0.942,0 -1.855,-0.28 -2.64,-0.81 l -0.424,-0.287 c -1.076,-0.726 -1.79,-1.828 -2.014,-3.104 -0.226,-1.287 0.076,-2.579 0.849,-3.639 8.208,-11.252 12.728,-25.38 12.728,-39.78 0,-14.63 -4.641,-28.923 -13.068,-40.249 -1.47,-1.975 -1.154,-4.789 0.72,-6.405 l 0.387,-0.333 c 0.861,-0.742 1.96,-1.15 3.094,-1.15 1.525,0 2.923,0.702 3.836,1.926 9.836,13.2 15.035,29.179 15.035,46.211 0,16.747 -5.054,32.527 -14.617,45.635 C 2.979,-0.742 1.526,0 0,0"
             style="fill:#42538d;fill-opacity:1;fill-rule:nonzero;stroke:none"
             id="path192" /></g><g
           id="g194"
           transform="translate(105.6436,45.8252)"><path
             d="M 0,0 C -1.24,0 -2.415,0.478 -3.307,1.344 L -3.669,1.697 C -5.383,3.363 -5.574,6.014 -4.124,7.996 0.212,13.922 2.6,21.442 2.6,29.174 c 0,7.578 -2.308,14.989 -6.5,20.868 -1.401,1.965 -1.176,4.561 0.531,6.173 l 0.431,0.406 c 0.885,0.835 2.042,1.296 3.257,1.296 1.533,0 2.98,-0.742 3.872,-1.985 C 9.694,48.271 12.603,39.018 12.603,29.174 12.603,19.249 9.492,9.576 3.842,1.937 2.931,0.707 1.53,0 0,0"
             style="fill:#42538d;fill-opacity:1;fill-rule:nonzero;stroke:none"
             id="path196" /></g></g></g></g></svg>
