<?xml version="1.0" encoding="UTF-8" standalone="no"?>
<!-- Created with Inkscape (http://www.inkscape.org/) -->

<svg
   version="1.1"
   id="svg34"
   xml:space="preserve"
   width="200"
   height="200"
   viewBox="0 0 200 200"
   sodipodi:docname="Video.ai.svg"
   inkscape:version="1.1 (c4e8f9e, 2021-05-24)"
   xmlns:inkscape="http://www.inkscape.org/namespaces/inkscape"
   xmlns:sodipodi="http://sodipodi.sourceforge.net/DTD/sodipodi-0.dtd"
   xmlns="http://www.w3.org/2000/svg"
   xmlns:svg="http://www.w3.org/2000/svg"><defs
     id="defs38"><clipPath
       clipPathUnits="userSpaceOnUse"
       id="clipPath48"><path
         d="M 0,150 H 150 V 0 H 0 Z"
         id="path46" /></clipPath></defs><sodipodi:namedview
     id="namedview36"
     pagecolor="#ffffff"
     bordercolor="#666666"
     borderopacity="1.0"
     inkscape:pageshadow="2"
     inkscape:pageopacity="0.0"
     inkscape:pagecheckerboard="0"
     showgrid="false"
     inkscape:zoom="2.78"
     inkscape:cx="99.820144"
     inkscape:cy="100"
     inkscape:window-width="1312"
     inkscape:window-height="782"
     inkscape:window-x="0"
     inkscape:window-y="25"
     inkscape:window-maximized="0"
     inkscape:current-layer="g40" /><g
     id="g40"
     inkscape:groupmode="layer"
     inkscape:label="Video"
     transform="matrix(1.3333333,0,0,-1.3333333,0,200)"><g
       id="g42"><g
         id="g44"
         clip-path="url(#clipPath48)"><g
           id="g50"
           transform="translate(138.1324,46.5007)"><path
             d="M 0,0 -28.804,23.405 V 33.473 L -0.1,57.199 c 0.76,0.63 1.9,0.08 1.89,-0.91 L 1.9,0.86 C 1.88,-0.11 0.75,-0.63 0,0 m -38.802,0.08 c 0,-6.059 -4.929,-10.978 -10.988,-10.978 h -67.367 c -6.058,0 -10.977,4.919 -10.977,10.978 v 56.839 c 0,6.048 4.919,10.977 10.977,10.977 h 67.367 c 6.059,0 10.988,-4.929 10.988,-10.977 V 38.172 18.756 Z m 50.61,57.618 C 11.948,66.597 1.6,71.576 -5.259,65.907 L -28.804,46.441 v 10.478 c 0,11.577 -9.398,20.975 -20.986,20.975 h -67.367 c -11.587,0 -20.975,-9.398 -20.975,-20.975 V 0.08 c 0,-11.588 9.388,-20.976 20.975,-20.976 h 67.367 c 11.588,0 20.986,9.388 20.986,20.976 V 10.338 L -5.269,-8.638 c 6.719,-5.659 16.997,-0.97 17.137,7.818 z"
             style="fill:#42538d;fill-opacity:1;fill-rule:nonzero;stroke:none"
             id="path52" /></g></g></g></g></svg>
